<svg xmlns="http://www.w3.org/2000/svg"  viewBox="0 0 100 100" width="200px" height="200px"><path d="M 31 17 C 23.8 17 18 22.8 18 30 L 18 69 C 18 76.2 23.8 82 31 82 L 70 82 C 77.2 82 83 76.2 83 69 L 83 30 C 83 22.8 77.2 17 70 17 L 31 17 z M 31 19 L 70 19 C 76.1 19 81 23.9 81 30 L 81 69 C 81 75.1 76.1 80 70 80 L 31 80 C 24.9 80 20 75.1 20 69 L 20 30 C 20 23.9 24.9 19 31 19 z M 50.5 21 C 50.2 21 50 21.2 50 21.5 L 50 26 C 50 26.3 50.2 26.5 50.5 26.5 C 50.8 26.5 51 26.3 51 26 L 51 21.5 C 51 21.2 50.8 21 50.5 21 z M 45 21.5 C 44.7 21.6 44.499609 21.799609 44.599609 22.099609 L 45.199219 25.099609 C 45.299219 25.299609 45.499219 25.5 45.699219 25.5 C 46.099219 25.5 46.299219 25.200391 46.199219 24.900391 L 45.599609 21.900391 C 45.499609 21.600391 45.3 21.5 45 21.5 z M 55.900391 21.599609 C 55.600391 21.599609 55.400781 21.7 55.300781 22 L 55.300781 22.099609 C 55.300781 22.499609 55.100781 23.400391 54.800781 24.900391 C 54.800781 25.200391 54.900781 25.4 55.300781 25.5 C 55.500781 25.5 55.700781 25.299609 55.800781 25.099609 C 56.000781 23.599609 56.200781 22.700781 56.300781 22.300781 L 56.300781 22.199219 C 56.300781 21.899219 56.200391 21.699609 55.900391 21.599609 z M 60.978516 23.0625 C 60.762891 23.0625 60.575 23.175391 60.5 23.400391 L 60.400391 23.599609 C 60.300391 24.099609 59.900391 24.899219 59.400391 26.199219 C 59.375391 26.249219 59.363281 26.305469 59.363281 26.363281 C 59.363281 26.536719 59.474219 26.725781 59.699219 26.800781 L 59.900391 26.800781 C 60.000391 26.800781 60.1 26.774609 60.1875 26.724609 C 60.275 26.674609 60.350391 26.6 60.400391 26.5 C 60.900391 25.3 61.200391 24.4 61.400391 24 L 61.5 23.699219 C 61.6 23.499219 61.499219 23.199609 61.199219 23.099609 C 61.124219 23.074609 61.050391 23.0625 60.978516 23.0625 z M 39.507812 23.261719 C 39.44375 23.261719 39.375781 23.275781 39.300781 23.300781 C 39.000781 23.500781 38.9 23.7 39 24 C 39 24 39.499219 24.999219 40.199219 26.699219 C 40.299219 26.899219 40.499219 27 40.699219 27 C 40.799219 27 40.900391 26.999609 40.900391 27.099609 C 41.200391 26.899609 41.299219 26.700391 41.199219 26.400391 C 40.399219 24.600391 40 23.599609 40 23.599609 C 39.85 23.374609 39.7 23.261719 39.507812 23.261719 z M 76.300781 23.300781 L 70.599609 24.699219 C 70.399609 24.799219 70.199219 24.899609 70.199219 25.099609 C 70.099219 25.299609 70.200781 25.499609 70.300781 25.599609 L 74.5 29.800781 C 74.6 29.800781 74.800391 29.900391 74.900391 29.900391 L 75.099609 30 C 75.299609 29.9 75.5 29.799609 75.5 29.599609 L 76.900391 23.900391 C 77.000391 23.700391 76.900781 23.500391 76.800781 23.400391 C 76.700781 23.300391 76.500781 23.300781 76.300781 23.300781 z M 75.599609 24.5 L 74.599609 28.5 L 71.599609 25.5 L 75.599609 24.5 z M 34.849609 25.800781 C 34.724609 25.775781 34.6 25.800391 34.5 25.900391 C 34.3 26.100391 34.200391 26.399609 34.400391 26.599609 C 34.400391 26.599609 35.099609 27.499609 36.099609 29.099609 C 36.199609 29.199609 36.3 29.300781 36.5 29.300781 C 36.6 29.300781 36.700781 29.199219 36.800781 29.199219 C 37.000781 28.999219 37.100391 28.7 36.900391 28.5 C 35.800391 26.9 35.199219 26 35.199219 26 C 35.099219 25.9 34.974609 25.825781 34.849609 25.800781 z M 66.150391 25.800781 C 66.025391 25.825781 65.900781 25.9 65.800781 26 L 64.099609 28.5 C 63.899609 28.7 63.999219 28.999219 64.199219 29.199219 C 64.299219 29.299219 64.4 29.300781 64.5 29.300781 C 64.6 29.300781 64.800391 29.199609 64.900391 29.099609 L 66.599609 26.599609 C 66.799609 26.399609 66.7 26.100391 66.5 25.900391 C 66.4 25.800391 66.275391 25.775781 66.150391 25.800781 z M 30.650391 29.25 C 30.525391 29.25 30.400781 29.300391 30.300781 29.400391 C 30.100781 29.600391 30.100781 29.899609 30.300781 30.099609 L 32.400391 32.199219 C 32.500391 32.299219 32.700781 32.300781 32.800781 32.300781 C 32.850781 32.300781 32.925781 32.299609 32.988281 32.287109 C 33.019531 32.280859 33.046094 32.271875 33.066406 32.257812 C 33.086719 32.24375 33.099609 32.224219 33.099609 32.199219 C 33.299609 31.999219 33.299609 31.7 33.099609 31.5 L 31 29.400391 C 30.9 29.300391 30.775391 29.25 30.650391 29.25 z M 70.25 29.25 C 70.1875 29.25 70.125781 29.262109 70.066406 29.287109 C 70.007031 29.312109 69.950391 29.350391 69.900391 29.400391 L 67.800781 31.5 C 67.600781 31.7 67.600781 31.999219 67.800781 32.199219 C 67.900781 32.299219 68.099219 32.300781 68.199219 32.300781 C 68.299219 32.300781 68.4 32.299219 68.5 32.199219 L 70.599609 30.099609 C 70.799609 29.899609 70.799609 29.600391 70.599609 29.400391 C 70.499609 29.300391 70.375 29.25 70.25 29.25 z M 73.566406 33.347656 C 73.507031 33.357031 73.450391 33.375391 73.400391 33.400391 C 73.300391 33.500391 72.400391 34.099609 70.900391 35.099609 C 70.700391 35.299609 70.600781 35.600781 70.800781 35.800781 C 70.900781 35.900781 70.999219 36 71.199219 36 L 71.400391 36 C 72.900391 35 73.800391 34.400781 73.900391 34.300781 C 74.200391 34.100781 74.199609 33.799609 74.099609 33.599609 C 73.949609 33.374609 73.744531 33.319531 73.566406 33.347656 z M 27.25 33.400391 C 27.125 33.425391 27.000391 33.499609 26.900391 33.599609 C 26.700391 33.799609 26.8 34.100781 27 34.300781 L 29.5 35.900391 C 29.6 36.000391 29.700781 36 29.800781 36 C 29.900781 36 30.099219 35.900391 30.199219 35.900391 C 30.399219 35.700391 30.299609 35.399219 30.099609 35.199219 L 27.599609 33.5 C 27.499609 33.4 27.375 33.375391 27.25 33.400391 z M 39.800781 34.400391 L 39.099609 37.199219 C 38.999609 37.899219 38.799219 38.499609 38.699219 39.099609 C 38.599219 38.599609 38.500781 37.900781 38.300781 37.300781 L 37.599609 34.5 L 36.900391 34.5 L 36.199219 37.300781 C 36.099219 38.000781 35.900781 38.699219 35.800781 39.199219 C 35.700781 38.599219 35.600391 38.000781 35.400391 37.300781 L 34.800781 34.5 L 34.099609 34.5 L 35.5 40 L 36.199219 40 L 37 37.199219 C 37.2 36.499219 37.300391 35.800781 37.400391 35.300781 C 37.500391 35.900781 37.600781 36.499219 37.800781 37.199219 L 38.5 40 L 39.199219 40 L 40.5 34.400391 L 39.800781 34.400391 z M 62 34.5 L 62 40 L 62.699219 40 L 62.699219 37.699219 C 62.699219 36.799219 62.599609 36.2 62.599609 35.5 C 62.899609 36.1 63.199609 36.700781 63.599609 37.300781 L 65.300781 40 L 66 40 L 66 34.5 L 65.300781 34.5 L 65.300781 36.900391 C 65.300781 37.700391 65.300391 38.399609 65.400391 39.099609 C 65.200391 38.499609 64.9 37.900781 64.5 37.300781 L 62.800781 34.5 L 62 34.5 z M 50.5 36 C 43.1 36 37 42.1 37 49.5 C 37 56.9 43.1 63 50.5 63 C 57.9 63 64 56.9 64 49.5 C 64 42.1 57.9 36 50.5 36 z M 50 37.025391 L 50 49 L 38.025391 49 C 38.283546 42.500565 43.500565 37.283546 50 37.025391 z M 51 37.025391 C 57.499435 37.283546 62.716454 42.500565 62.974609 49 L 51 49 L 51 37.025391 z M 76.308594 37.962891 C 76.244531 37.962891 76.174609 37.975 76.099609 38 C 75.899609 38.1 74.900781 38.499219 73.300781 39.199219 C 73.000781 39.399219 72.9 39.600391 73 39.900391 C 73.1 40.100391 73.3 40.199219 73.5 40.199219 L 73.800781 40.199219 C 75.400781 39.499219 76.4 39.1 76.5 39 C 76.8 38.8 77.000781 38.600781 76.800781 38.300781 C 76.650781 38.075781 76.500781 37.962891 76.308594 37.962891 z M 24.478516 38.462891 C 24.262891 38.462891 24.075 38.575781 24 38.800781 C 23.9 39.100781 24.000781 39.4 24.300781 39.5 C 24.300781 39.5 25.299609 39.899609 27.099609 40.599609 L 27.300781 40.599609 C 27.500781 40.599609 27.700781 40.500781 27.800781 40.300781 C 27.900781 40.000781 27.8 39.699609 27.5 39.599609 C 25.7 38.899609 24.699219 38.5 24.699219 38.5 C 24.624219 38.475 24.550391 38.462891 24.478516 38.462891 z M 78.005859 43.578125 C 77.943359 43.56875 77.875781 43.574609 77.800781 43.599609 L 74.900391 44.199219 C 74.600391 44.299219 74.4 44.500781 74.5 44.800781 C 74.6 45.000781 74.8 45.199219 75 45.199219 L 78 44.599609 C 78.3 44.499609 78.500391 44.3 78.400391 44 C 78.325391 43.775 78.193359 43.60625 78.005859 43.578125 z M 23.199219 43.599609 C 22.899219 43.599609 22.699609 43.7 22.599609 44 C 22.599609 44.3 22.7 44.499609 23 44.599609 L 26 45.199219 C 26.2 45.199219 26.4 45.100781 26.5 44.800781 C 26.5 44.500781 26.399609 44.299219 26.099609 44.199219 C 24.299609 43.799219 23.199219 43.599609 23.199219 43.599609 z M 22.5 49 C 22.2 49 22 49.2 22 49.5 C 22 49.8 22.2 50 22.5 50 L 27 50 C 27.3 50 27.5 49.8 27.5 49.5 C 27.5 49.2 27.3 49 27 49 L 22.5 49 z M 74 49 C 73.7 49 73.5 49.2 73.5 49.5 C 73.5 49.8 73.7 50 74 50 L 78.5 50 C 78.8 50 79 49.8 79 49.5 C 79 49.2 78.8 49 78.5 49 L 74 49 z M 38.025391 50 L 50 50 L 50 61.974609 C 43.500565 61.716454 38.283546 56.499435 38.025391 50 z M 51 50 L 62.974609 50 C 62.716454 56.499435 57.499435 61.716454 51 61.974609 L 51 50 z M 74.994141 53.677734 C 74.806641 53.705859 74.674609 53.874609 74.599609 54.099609 C 74.599609 54.399609 74.7 54.599219 75 54.699219 C 76.3 54.899219 77.299219 55.099219 77.699219 55.199219 L 78 55.300781 C 78.2 55.300781 78.4 55.200781 78.5 54.800781 C 78.5 54.500781 78.399609 54.299219 78.099609 54.199219 L 77.900391 54.199219 C 77.500391 54.099219 76.499219 53.999219 75.199219 53.699219 C 75.124219 53.674219 75.056641 53.668359 74.994141 53.677734 z M 25.900391 53.699219 L 22.900391 54.300781 C 22.600391 54.400781 22.4 54.600391 22.5 54.900391 C 22.6 55.100391 22.8 55.300781 23 55.300781 L 26.099609 54.699219 C 26.399609 54.599219 26.6 54.399609 26.5 54.099609 C 26.4 53.799609 26.200391 53.699219 25.900391 53.699219 z M 73.736328 58.261719 C 73.562891 58.261719 73.375781 58.374609 73.300781 58.599609 C 73.200781 58.899609 73.299609 59.200781 73.599609 59.300781 C 74.899609 59.900781 75.899219 60.300391 76.199219 60.400391 L 76.300781 60.5 L 76.5 60.5 C 76.6 60.5 76.675781 60.475781 76.738281 60.425781 C 76.800781 60.375781 76.850391 60.299219 76.900391 60.199219 C 77.000391 59.899219 76.899609 59.6 76.599609 59.5 L 76.5 59.400391 C 76.2 59.200391 75.300391 58.800781 73.900391 58.300781 C 73.850391 58.275781 73.794141 58.261719 73.736328 58.261719 z M 27.507812 58.662109 C 27.44375 58.662109 27.375781 58.674219 27.300781 58.699219 C 25.500781 59.499219 24.5 59.900391 24.5 59.900391 C 24.2 60.100391 24.099219 60.299609 24.199219 60.599609 C 24.299219 60.799609 24.499219 60.900391 24.699219 60.900391 L 25 60.900391 C 25 60.900391 25.250391 60.775 25.712891 60.5625 C 26.175391 60.35 26.849219 60.049219 27.699219 59.699219 C 27.999219 59.499219 28.1 59.3 28 59 C 27.85 58.775 27.7 58.662109 27.507812 58.662109 z M 37.599609 59 C 36.599609 59 35.900391 59.600391 35.900391 60.400391 C 35.900391 61.100391 36.400781 61.600391 37.300781 61.900391 C 38.000781 62.200391 38.300781 62.5 38.300781 63 C 38.300781 63.5 37.899219 63.900391 37.199219 63.900391 C 36.799219 63.900391 36.3 63.799609 36 63.599609 L 35.800781 64.199219 C 36.100781 64.299219 36.699219 64.5 37.199219 64.5 C 38.499219 64.5 39.099609 63.8 39.099609 63 C 39.099609 62.2 38.599219 61.700391 37.699219 61.400391 C 36.899219 61.100391 36.599609 60.900391 36.599609 60.400391 C 36.599609 60.000391 36.899609 59.599609 37.599609 59.599609 C 38.099609 59.599609 38.399609 59.800391 38.599609 59.900391 L 38.800781 59.300781 C 38.600781 59.100781 38.199609 59 37.599609 59 z M 62 59 L 62 64.5 L 65 64.5 L 65 63.900391 L 62.699219 63.900391 L 62.699219 62 L 64.800781 62 L 64.800781 61.5 L 62.699219 61.5 L 62.699219 59.599609 L 64.900391 59.599609 L 64.900391 59 L 62 59 z M 29.849609 63 C 29.724609 62.975 29.6 62.999609 29.5 63.099609 C 27.9 64.199609 27 64.800781 27 64.800781 C 26.8 65.000781 26.700391 65.3 26.900391 65.5 C 27.000391 65.6 27.100781 65.699219 27.300781 65.699219 C 27.400781 65.699219 27.499609 65.599609 27.599609 65.599609 C 27.599609 65.599609 28.499609 64.900391 30.099609 63.900391 C 30.299609 63.700391 30.399219 63.399219 30.199219 63.199219 C 30.099219 63.099219 29.974609 63.025 29.849609 63 z M 71.150391 63 C 71.025391 63.025 70.900781 63.099219 70.800781 63.199219 C 70.600781 63.399219 70.700391 63.700391 70.900391 63.900391 L 73.400391 65.599609 C 73.500391 65.699609 73.599219 65.699219 73.699219 65.699219 C 73.899219 65.699219 73.999609 65.6 74.099609 65.5 C 74.299609 65.3 74.2 65.000781 74 64.800781 L 71.5 63.099609 C 71.4 62.999609 71.275391 62.975 71.150391 63 z M 32.75 66.75 C 32.625 66.75 32.500391 66.800391 32.400391 66.900391 L 30.300781 69 C 30.100781 69.2 30.100781 69.499219 30.300781 69.699219 C 30.400781 69.799219 30.599219 69.800781 30.699219 69.800781 C 30.749219 69.800781 30.824219 69.799609 30.886719 69.787109 C 30.917969 69.780859 30.946484 69.771875 30.966797 69.757812 C 30.987109 69.74375 31 69.724219 31 69.699219 L 33.099609 67.599609 C 33.299609 67.399609 33.299609 67.100391 33.099609 66.900391 C 32.999609 66.800391 32.875 66.75 32.75 66.75 z M 68.150391 66.75 C 68.087891 66.75 68.024219 66.762109 67.964844 66.787109 C 67.905469 66.812109 67.850781 66.850391 67.800781 66.900391 C 67.600781 67.100391 67.600781 67.399609 67.800781 67.599609 L 69.900391 69.699219 C 70.000391 69.799219 70.200781 69.800781 70.300781 69.800781 C 70.350781 69.800781 70.425781 69.799609 70.488281 69.787109 C 70.519531 69.780859 70.546094 69.771875 70.566406 69.757812 C 70.586719 69.74375 70.599609 69.724219 70.599609 69.699219 C 70.799609 69.499219 70.799609 69.2 70.599609 69 L 68.5 66.900391 C 68.4 66.800391 68.275391 66.75 68.150391 66.75 z M 36.449219 69.699219 C 36.324219 69.724219 36.199609 69.800391 36.099609 69.900391 L 34.400391 72.400391 C 34.200391 72.600391 34.3 72.899609 34.5 73.099609 C 34.6 73.199609 34.700781 73.199219 34.800781 73.199219 C 35.000781 73.199219 35.200781 73.1 35.300781 73 L 36.900391 70.5 C 37.100391 70.3 37.000781 70.000781 36.800781 69.800781 C 36.700781 69.700781 36.574219 69.674219 36.449219 69.699219 z M 64.550781 69.699219 C 64.425781 69.674219 64.299219 69.700781 64.199219 69.800781 C 63.999219 70.000781 63.899609 70.3 64.099609 70.5 C 65.099609 72 65.700781 72.9 65.800781 73 C 65.900781 73.1 65.999219 73.199219 66.199219 73.199219 C 66.199219 73.199219 66.300391 73.199609 66.400391 73.099609 C 66.700391 72.899609 66.699609 72.600391 66.599609 72.400391 C 66.499609 72.300391 65.900391 71.400391 64.900391 69.900391 C 64.800391 69.800391 64.675781 69.724219 64.550781 69.699219 z M 60.166016 72.0625 C 60.106641 72.0625 60.05 72.074609 60 72.099609 C 59.7 72.299609 59.599219 72.500781 59.699219 72.800781 C 60.399219 74.400781 60.800391 75.4 60.900391 75.5 C 61.000391 75.7 61.200391 75.800781 61.400391 75.800781 C 61.500391 75.800781 61.599609 75.800391 61.599609 75.900391 C 61.899609 75.700391 62.000391 75.499219 61.900391 75.199219 C 61.800391 74.999219 61.399219 74.000391 60.699219 72.400391 C 60.549219 72.175391 60.344141 72.0625 60.166016 72.0625 z M 41.078125 72.162109 C 40.8625 72.162109 40.674609 72.275 40.599609 72.5 C 39.899609 74.3 39.5 75.300781 39.5 75.300781 C 39.4 75.600781 39.500781 75.9 39.800781 76 L 40 76 C 40.2 76 40.4 75.799219 40.5 75.699219 C 40.5 75.699219 40.899609 74.700391 41.599609 72.900391 C 41.699609 72.600391 41.600781 72.299219 41.300781 72.199219 C 41.225781 72.174219 41.15 72.162109 41.078125 72.162109 z M 50.5 72.5 C 50.2 72.5 50 72.7 50 73 L 50 77.5 C 50 77.8 50.2 78 50.5 78 C 50.8 78 51 77.8 51 77.5 L 51 73 C 51 72.7 50.8 72.5 50.5 72.5 z M 55.306641 73.478516 C 55.244141 73.469141 55.174609 73.475 55.099609 73.5 C 54.799609 73.6 54.599219 73.799609 54.699219 74.099609 L 55.300781 77.099609 C 55.400781 77.299609 55.600781 77.5 55.800781 77.5 C 56.200781 77.4 56.400781 77.200391 56.300781 76.900391 L 55.699219 73.900391 C 55.624219 73.675391 55.494141 73.506641 55.306641 73.478516 z M 45.900391 73.599609 C 45.600391 73.599609 45.400781 73.7 45.300781 74 C 44.900781 75.8 44.699219 76.900391 44.699219 76.900391 C 44.699219 77.200391 44.799219 77.4 45.199219 77.5 C 45.399219 77.5 45.599219 77.299609 45.699219 77.099609 C 45.699219 77.099609 45.900781 76.099219 46.300781 74.199219 C 46.300781 73.899219 46.200391 73.699609 45.900391 73.599609 z"/></svg>